<?xml version="1.0" encoding="UTF-8" standalone="no"?>
<!-- Created with Inkscape (http://www.inkscape.org/) -->

<svg
   xmlns:dc="http://purl.org/dc/elements/1.1/"
   xmlns:cc="http://creativecommons.org/ns#"
   xmlns:rdf="http://www.w3.org/1999/02/22-rdf-syntax-ns#"
   xmlns:svg="http://www.w3.org/2000/svg"
   xmlns="http://www.w3.org/2000/svg"
   xmlns:sodipodi="http://sodipodi.sourceforge.net/DTD/sodipodi-0.dtd"
   xmlns:inkscape="http://www.inkscape.org/namespaces/inkscape"
   width="84.499451mm"
   height="73.797676mm"
   viewBox="0 0 84.499451 73.797676"
   version="1.1"
   id="svg8"
   inkscape:version="0.92.4 (5da689c313, 2019-01-14)"
   sodipodi:docname="turtle.svg">
  <defs
     id="defs2" />
  <sodipodi:namedview
     id="base"
     pagecolor="#ffffff"
     bordercolor="#666666"
     borderopacity="1.0"
     inkscape:pageopacity="0.0"
     inkscape:pageshadow="2"
     inkscape:zoom="1.1867187"
     inkscape:cx="99.138497"
     inkscape:cy="198.49903"
     inkscape:document-units="mm"
     inkscape:current-layer="layer1"
     showgrid="false"
     inkscape:window-width="1920"
     inkscape:window-height="1017"
     inkscape:window-x="-8"
     inkscape:window-y="-8"
     inkscape:window-maximized="1"
     fit-margin-top="0"
     fit-margin-left="0"
     fit-margin-right="0"
     fit-margin-bottom="0" />
  <metadata
     id="metadata5">
    <rdf:RDF>
      <cc:Work
         rdf:about="">
        <dc:format>image/svg+xml</dc:format>
        <dc:type
           rdf:resource="http://purl.org/dc/dcmitype/StillImage" />
        <dc:title></dc:title>
      </cc:Work>
    </rdf:RDF>
  </metadata>
  <g
     inkscape:label="Layer 1"
     inkscape:groupmode="layer"
     id="layer1"
     transform="translate(-43.253017,-127.55519)">
    <rect
       style="fill:#0000ff;fill-rule:evenodd;stroke-width:0.26458332"
       id="rect815"
       width="84.499451"
       height="73.797676"
       x="43.253017"
       y="127.55519" />
    <path
       style="fill:#0040ff;fill-opacity:1;fill-rule:evenodd;stroke:none;stroke-width:0.26458332"
       d="m 82.492867,165.68028 c -0.190155,-0.51996 0.607079,-0.51285 0.864206,-0.31605 0.6968,0.53333 0.359516,1.58647 -0.232107,2.04447 -1.058275,0.81925 -2.564706,0.27316 -3.224719,-0.78027 -0.968596,-1.54594 -0.190498,-3.55848 1.328421,-4.40497 2.024479,-1.12825 4.558057,-0.10979 5.585232,1.87657 1.292594,2.49964 0.03015,5.56048 -2.424735,6.76549 -2.973201,1.45943 -6.564514,-0.0488 -7.945745,-2.97289 -1.627732,-3.4459 13.281681,-21.16974 16.675317,-22.72618 3.918086,-1.79697 -4.578992,13.8059 -2.848011,17.66939 1.96685,4.38993 -0.283847,9.58146 -4.617362,11.48651 -4.861549,2.13717 -10.588001,-0.36184 -12.66677,-5.16552 -2.307827,-5.333 0.439719,-11.59479 5.713676,-13.84703 5.804332,-2.47872 12.601786,0.51753 15.027282,6.26184 2.64982,6.27557 -4.162532,20.29754 -10.377248,22.89614 -6.74674,2.82107 -11.048949,-7.36158 -13.820536,-14.04675 -2.992428,-7.21785 -7.275702,-18.29903 -0.12003,-21.24349 7.688918,-3.16389 24.657377,3.5037 27.774641,11.1299 3.335431,8.15994 -0.90586,17.63857 -9.002618,20.92856 -8.630944,3.50705 -18.646163,-0.98344 -22.10882,-9.55077 -3.678719,-9.10192 1.060999,-19.65381 10.098931,-23.28908 9.572868,-3.85044 30.248498,-11.12391 34.056348,-1.61536 4.02219,10.0438 -15.708068,40.39731 -25.687241,44.3777 -10.514716,4.19399 -19.061516,-7.33495 -21.924864,-18.20906 -13.283973,-50.44842 1.371098,-23.68474 12.291558,-28.01011 11.456509,-4.53768 24.692544,1.4486 29.190357,12.83972 4.70956,11.92739 -1.52609,25.70037 -13.387871,30.37061 -12.398258,4.88147 -26.708218,-1.60357 -31.550871,-13.93603 -5.053386,-12.86912 1.681048,-27.71608 14.484186,-32.73112 13.339976,-5.22533 28.723966,1.75852 33.911386,15.03234 5.39728,13.81082 12.87895,31.9614 -0.86556,37.32118 -14.281664,5.56925 -54.59581,13.69331 -60.12794,-0.5219 -5.741228,-14.7525 10.704019,-50.84018 25.817916,-55.28845 53.248304,-15.67184 61.649114,-5.34679 38.632404,17.22497 -12.01805,11.78572 -2.1458,33.76356 -17.773123,39.81267 -16.164987,6.25723 -34.771503,-2.22326 -40.992921,-18.32129 -6.429253,-16.6358 -15.758554,-39.34672 0.810191,-45.74043 17.106623,-6.60129 54.846673,5.94539 61.412683,22.98485 4.64535,12.05515 9.95617,34.05918 1.24449,43.57618"
       id="path817"
       inkscape:connector-curvature="0"
       sodipodi:nodetypes="ccccccscsscscscsssssscssssssssssssssssc" />
    <ellipse
       style="opacity:1;vector-effect:none;fill:#008000;fill-opacity:1;fill-rule:evenodd;stroke-width:868.57830811;stroke-linecap:butt;stroke-linejoin:miter;stroke-miterlimit:4;stroke-dasharray:none;stroke-dashoffset:0;stroke-opacity:1"
       id="path820"
       cx="89.515915"
       cy="166.46059"
       rx="35.115208"
       ry="29.095457" />
    <ellipse
       style="opacity:1;vector-effect:none;fill:#008000;fill-opacity:1;fill-rule:evenodd;stroke-width:692.09204102;stroke-linecap:butt;stroke-linejoin:miter;stroke-miterlimit:4;stroke-dasharray:none;stroke-dashoffset:0;stroke-opacity:1"
       id="path822"
       cx="50.499012"
       cy="166.68358"
       rx="6.8000875"
       ry="9.2525778" />
    <circle
       style="opacity:1;vector-effect:none;fill:#000000;fill-opacity:1;fill-rule:evenodd;stroke-width:593.32098389;stroke-linecap:butt;stroke-linejoin:miter;stroke-miterlimit:4;stroke-dasharray:none;stroke-dashoffset:0;stroke-opacity:1"
       id="path832"
       cx="50.053104"
       cy="162.67039"
       r="1.0032916" />
    <circle
       r="1.0032916"
       cy="169.80492"
       cx="50.053104"
       id="circle836"
       style="opacity:1;vector-effect:none;fill:#000000;fill-opacity:1;fill-rule:evenodd;stroke-width:593.32098389;stroke-linecap:butt;stroke-linejoin:miter;stroke-miterlimit:4;stroke-dasharray:none;stroke-dashoffset:0;stroke-opacity:1" />
  </g>
</svg>
